<?xml version="1.0" standalone="no"?>
<!DOCTYPE svg PUBLIC "-//W3C//DTD SVG 20010904//EN"
 "http://www.w3.org/TR/2001/REC-SVG-20010904/DTD/svg10.dtd">
<svg version="1.0" xmlns="http://www.w3.org/2000/svg"
 width="608.000000pt" height="600.000000pt" viewBox="0 0 608.000000 600.000000"
 preserveAspectRatio="xMidYMid meet">

<g transform="translate(0.000000,600.000000) scale(0.100000,-0.100000)"
fill="#000000" stroke="none">
<path d="M1288 3703 c-56 -5 -64 -24 -15 -38 22 -7 33 -17 35 -32 2 -12 -15
-100 -38 -195 -87 -370 -85 -355 -72 -382 6 -14 23 -28 38 -32 30 -8 134 13
134 27 0 5 1 12 3 16 1 5 -14 7 -34 5 -23 -2 -40 2 -49 12 -15 19 -11 44 62
351 27 115 52 225 55 243 6 36 10 35 -119 25z"/>
<path d="M3907 3701 c-62 -7 -75 -21 -27 -34 45 -11 46 -1 -59 -457 -31 -136
-29 -162 14 -182 30 -14 109 3 135 28 12 12 10 14 -22 14 -79 0 -81 11 -43
177 79 333 94 401 100 431 7 36 15 34 -98 23z"/>
<path d="M703 3651 c-115 -39 -187 -104 -240 -217 -25 -52 -28 -71 -28 -159 0
-111 9 -137 67 -194 37 -37 61 -48 131 -61 52 -10 176 7 238 32 34 15 36 19
53 99 20 95 34 116 82 125 20 4 34 12 34 20 0 12 -24 14 -137 12 -141 -3 -180
-16 -101 -34 53 -11 58 -30 33 -122 -20 -72 -41 -92 -109 -99 -159 -18 -236
146 -169 362 44 142 148 225 265 212 80 -10 128 -71 128 -166 0 -23 4 -31 18
-31 16 0 23 19 43 108 14 59 21 109 16 111 -5 2 -19 -2 -32 -9 -20 -11 -31
-10 -66 4 -59 24 -166 27 -226 7z"/>
<path d="M2311 3568 c-5 -13 -12 -42 -16 -65 -7 -43 -7 -43 -50 -43 -35 0 -44
-4 -48 -21 -6 -23 12 -34 43 -26 11 3 22 2 25 -2 2 -4 -11 -74 -30 -156 -42
-179 -43 -199 -10 -221 31 -20 123 -14 161 11 37 24 29 35 -21 28 -86 -11 -89
7 -38 223 l27 114 57 0 c47 0 60 4 68 19 14 26 5 31 -60 31 l-57 0 14 53 c20
74 19 77 -21 77 -28 0 -37 -5 -44 -22z"/>
<path d="M1591 3452 c-53 -20 -66 -43 -24 -41 58 3 63 1 63 -33 0 -18 -11 -79
-25 -136 -33 -138 -33 -174 3 -202 39 -32 113 -24 175 18 34 22 47 27 47 17 0
-8 9 -24 21 -36 18 -18 28 -20 67 -14 49 7 92 28 92 45 0 6 -11 8 -24 4 -40
-10 -66 4 -66 34 0 15 16 100 37 189 20 90 35 165 32 167 -3 3 -21 3 -41 -1
l-37 -5 -30 -127 c-16 -69 -33 -143 -36 -164 -12 -64 -118 -122 -160 -87 -22
18 -19 90 10 200 31 121 32 154 3 174 -28 20 -51 19 -107 -2z"/>
<path d="M2771 3460 c-42 -18 -101 -71 -125 -113 -50 -87 -57 -218 -15 -271
66 -84 217 -73 299 21 22 24 28 39 21 46 -7 7 -23 -1 -50 -26 -45 -41 -70 -50
-127 -45 -31 2 -43 10 -61 37 -13 19 -23 49 -23 66 0 33 0 33 67 45 134 23
210 74 220 147 4 32 1 45 -20 68 -22 26 -32 29 -93 32 -38 2 -80 -2 -93 -7z
m116 -39 c18 -29 4 -88 -28 -120 -26 -27 -152 -72 -164 -59 -3 2 2 28 11 57
30 104 145 180 181 122z"/>
<path d="M3200 3458 c-61 -17 -84 -51 -32 -48 56 4 62 1 62 -28 0 -16 -16 -97
-35 -182 -19 -85 -35 -157 -35 -162 0 -4 17 -8 39 -8 l38 0 38 158 c29 122 43
163 63 184 30 33 83 52 117 44 41 -10 42 -47 5 -193 -38 -147 -36 -180 13
-197 34 -12 137 18 137 40 0 10 -7 13 -24 8 -14 -3 -34 -3 -45 1 -28 9 -27 41
4 161 28 107 32 181 11 209 -9 12 -30 19 -67 23 -49 4 -59 1 -108 -32 -61 -41
-61 -41 -61 -21 0 23 -37 55 -62 54 -13 0 -39 -5 -58 -11z"/>
<path d="M4328 3456 c-56 -20 -85 -42 -118 -88 -57 -79 -76 -200 -42 -268 52
-104 203 -108 301 -6 50 51 29 66 -25 16 -47 -43 -78 -50 -149 -35 -27 6 -55
55 -55 98 0 35 1 36 58 47 100 20 152 41 188 76 44 44 48 107 10 143 -30 28
-115 37 -168 17z m113 -37 c6 -12 8 -35 5 -51 -13 -68 -65 -106 -165 -123
l-44 -7 7 38 c10 54 52 122 89 145 44 26 93 25 108 -2z"/>
<path d="M4829 3461 c-44 -14 -77 -41 -93 -76 -35 -74 -9 -121 93 -167 36 -16
72 -36 79 -45 31 -42 -2 -115 -58 -126 -46 -10 -76 7 -90 48 -18 53 -68 67
-90 24 -27 -50 46 -99 148 -99 77 0 129 30 160 90 39 77 13 121 -105 175 -75
35 -85 48 -71 100 10 39 33 55 78 55 32 0 37 -4 49 -35 8 -23 21 -37 37 -41
48 -12 74 45 35 80 -21 19 -132 30 -172 17z"/>
<path d="M5325 3460 c-58 -18 -105 -79 -105 -135 0 -37 51 -88 110 -108 28
-10 60 -27 71 -38 40 -40 10 -120 -49 -132 -48 -10 -72 2 -93 49 -28 58 -65
68 -89 24 -39 -74 126 -131 236 -81 53 24 85 69 86 122 1 53 -27 82 -119 125
l-73 33 0 40 c0 52 27 81 75 81 31 0 38 -5 52 -35 19 -39 54 -55 78 -35 21 17
19 53 -4 74 -22 20 -132 30 -176 16z"/>
<path d="M1016 2718 c4 -7 27 -39 52 -71 l44 -57 -50 -58 c-61 -72 -67 -82
-48 -82 9 0 39 29 68 65 70 86 88 86 88 0 0 -51 3 -65 15 -65 12 0 15 14 15
65 0 49 3 65 14 65 8 0 38 -29 66 -65 32 -40 59 -65 71 -65 16 0 9 13 -36 67
-30 37 -55 71 -55 76 0 5 20 35 45 67 49 64 52 70 31 70 -8 0 -34 -27 -58 -60
-58 -80 -78 -80 -78 0 0 47 -3 60 -15 60 -12 0 -15 -13 -15 -60 0 -53 -2 -60
-19 -60 -12 0 -38 23 -66 60 -25 33 -53 60 -61 60 -9 0 -12 -5 -8 -12z"/>
<path d="M1410 2590 c0 -105 3 -140 13 -140 6 0 46 53 87 118 l75 117 3 -117
c2 -96 5 -118 17 -118 13 0 15 24 15 140 0 182 -7 183 -112 18 l-78 -122 0
122 c0 75 -4 122 -10 122 -6 0 -10 -53 -10 -140z"/>
<path d="M1706 2709 c-26 -20 -35 -49 -16 -49 6 0 19 9 30 20 35 35 110 18
110 -25 0 -24 -31 -45 -66 -45 -24 0 -34 -5 -34 -15 0 -10 10 -15 31 -15 43 0
69 -17 69 -45 0 -53 -65 -73 -113 -35 -35 28 -49 26 -36 -4 22 -48 106 -62
153 -25 32 25 36 79 8 107 -18 18 -18 19 0 42 25 30 23 56 -7 85 -31 32 -91
34 -129 4z"/>
<path d="M1930 2590 c0 -87 4 -140 10 -140 6 0 10 28 10 65 l0 65 75 0 75 0 0
-65 c0 -51 3 -65 15 -65 13 0 15 22 15 140 0 118 -2 140 -15 140 -12 0 -15
-13 -15 -60 l0 -60 -75 0 -75 0 0 60 c0 33 -4 60 -10 60 -6 0 -10 -53 -10
-140z"/>
<path d="M2200 2590 l0 -140 70 0 c62 0 74 3 95 25 17 16 25 35 25 60 0 58
-35 85 -110 85 l-60 0 0 55 c0 30 -4 55 -10 55 -6 0 -10 -53 -10 -140z m144
-16 c9 -8 16 -26 16 -39 0 -39 -25 -55 -86 -55 l-54 0 0 55 0 55 54 0 c36 0
60 -5 70 -16z"/>
<path d="M2560 2590 l0 -140 70 0 c62 0 74 3 95 25 17 16 25 35 25 60 0 58
-35 85 -110 85 l-60 0 0 40 0 40 75 0 c60 0 75 3 75 15 0 12 -16 15 -85 15
l-85 0 0 -140z m144 -16 c9 -8 16 -26 16 -39 0 -39 -25 -55 -86 -55 l-54 0 0
55 0 55 54 0 c36 0 60 -5 70 -16z"/>
<path d="M2810 2590 l0 -140 90 0 c73 0 90 3 90 15 0 12 -16 15 -80 15 l-80 0
0 50 0 50 70 0 c56 0 70 3 70 15 0 12 -14 15 -70 15 l-70 0 0 45 0 45 80 0
c64 0 80 3 80 15 0 12 -17 15 -90 15 l-90 0 0 -140z"/>
<path d="M3066 2709 c-26 -20 -35 -49 -16 -49 6 0 19 9 30 20 35 35 110 18
110 -25 0 -24 -31 -45 -66 -45 -24 0 -34 -5 -34 -15 0 -10 10 -15 31 -15 43 0
69 -17 69 -45 0 -53 -65 -73 -113 -35 -35 28 -49 26 -36 -4 22 -48 106 -62
153 -25 32 25 36 79 8 107 -18 18 -18 19 0 42 25 30 23 56 -7 85 -31 32 -91
34 -129 4z"/>
<path d="M3400 2590 c0 -87 4 -140 10 -140 6 0 10 48 10 125 l0 125 65 0 c51
0 65 3 65 15 0 12 -15 15 -75 15 l-75 0 0 -140z"/>
<path d="M3630 2624 c0 -107 -9 -144 -35 -144 -8 0 -15 -7 -15 -15 0 -24 37
-17 59 11 18 23 21 41 21 125 l0 99 60 0 60 0 0 -125 c0 -104 2 -125 15 -125
13 0 15 22 15 140 l0 140 -90 0 -90 0 0 -106z"/>
<path d="M3890 2590 c0 -118 2 -140 15 -140 12 0 15 14 15 65 l0 65 35 0 c33
0 35 -2 35 -34 0 -48 8 -65 41 -81 62 -33 132 -8 148 53 14 47 14 97 0 144
-16 61 -86 86 -148 53 -32 -16 -41 -33 -41 -76 0 -27 -3 -29 -35 -29 l-35 0 0
60 c0 47 -3 60 -15 60 -13 0 -15 -22 -15 -140z m249 84 c16 -20 21 -41 21 -84
0 -73 -25 -110 -74 -110 -52 0 -71 29 -71 110 0 53 4 73 19 89 28 31 79 28
105 -5z"/>
<path d="M4210 2715 c0 -11 11 -15 40 -15 l40 0 0 -125 c0 -104 2 -125 15
-125 13 0 15 21 15 125 l0 125 45 0 c33 0 45 4 45 15 0 12 -18 15 -100 15 -82
0 -100 -3 -100 -15z"/>
<path d="M4440 2590 l0 -140 90 0 c73 0 90 3 90 15 0 12 -16 15 -80 15 l-80 0
0 50 0 50 70 0 c56 0 70 3 70 15 0 12 -14 15 -70 15 l-70 0 0 45 0 45 80 0
c64 0 80 3 80 15 0 12 -17 15 -90 15 l-90 0 0 -140z"/>
<path d="M4680 2590 c0 -87 4 -140 10 -140 6 0 10 28 10 65 l0 65 75 0 75 0 0
-65 c0 -51 3 -65 15 -65 13 0 15 22 15 140 0 118 -2 140 -15 140 -12 0 -15
-13 -15 -60 l0 -60 -75 0 -75 0 0 60 c0 33 -4 60 -10 60 -6 0 -10 -53 -10
-140z"/>
<path d="M4975 2603 c-26 -71 -50 -134 -53 -140 -2 -7 3 -13 11 -13 9 0 21 16
28 35 l13 35 67 0 c67 0 67 0 74 -31 6 -27 29 -48 40 -37 2 2 -19 65 -47 141
-38 102 -56 137 -68 137 -13 0 -30 -33 -65 -127z m89 30 c10 -32 21 -64 23
-70 4 -9 -9 -13 -46 -13 -28 0 -51 3 -51 8 0 14 45 132 51 132 3 0 13 -26 23
-57z"/>
</g>
</svg>
